<mxfile host="app.diagrams.net" agent="Mozilla/5.0 (Windows NT 10.0; Win64; x64) AppleWebKit/537.36 (KHTML, like Gecko) Chrome/134.0.0.0 Safari/537.36" version="26.1.0">
  <diagram id="kgpKYQtTHZ0yAKxKKP6v" name="Page-1">
    <mxGraphModel dx="954" dy="558" grid="1" gridSize="10" guides="1" tooltips="1" connect="1" arrows="1" fold="1" page="1" pageScale="1" pageWidth="850" pageHeight="1100" math="0" shadow="0">
      <root>
        <mxCell id="0" />
        <mxCell id="1" parent="0" />
        <mxCell id="g1UFgbMDgLvSiYdy4ocw-50" value="&lt;b&gt;&lt;font style=&quot;font-size: 16px;&quot;&gt;Main.py Script Flow Diagram&amp;nbsp;&lt;/font&gt;&lt;/b&gt;" style="text;html=1;align=center;verticalAlign=middle;resizable=0;points=[];autosize=1;strokeColor=none;fillColor=none;" parent="1" vertex="1">
          <mxGeometry x="285" y="20" width="250" height="30" as="geometry" />
        </mxCell>
        <mxCell id="0ad2F_PwVZQ8O6TXxoXa-2" value="" style="endArrow=classic;html=1;rounded=0;exitX=0.5;exitY=1;exitDx=0;exitDy=0;entryX=0.5;entryY=0;entryDx=0;entryDy=0;" edge="1" parent="1" source="0ad2F_PwVZQ8O6TXxoXa-4" target="0ad2F_PwVZQ8O6TXxoXa-3">
          <mxGeometry width="50" height="50" relative="1" as="geometry">
            <mxPoint x="385" y="150" as="sourcePoint" />
            <mxPoint x="400" y="220" as="targetPoint" />
          </mxGeometry>
        </mxCell>
        <mxCell id="0ad2F_PwVZQ8O6TXxoXa-3" value="calculate_for_TI" style="rounded=1;whiteSpace=wrap;html=1;" vertex="1" parent="1">
          <mxGeometry x="332.5" y="220" width="120" height="60" as="geometry" />
        </mxCell>
        <mxCell id="0ad2F_PwVZQ8O6TXxoXa-4" value="Initialize the following variables:&amp;nbsp;&lt;div&gt;start_time&amp;nbsp;&lt;/div&gt;&lt;div&gt;path_wind_files&lt;/div&gt;&lt;div&gt;path_turbie_parameters&lt;/div&gt;" style="ellipse;whiteSpace=wrap;html=1;" vertex="1" parent="1">
          <mxGeometry x="265" y="60" width="255" height="80" as="geometry" />
        </mxCell>
        <mxCell id="0ad2F_PwVZQ8O6TXxoXa-6" value="path_wind_files: str/path&amp;nbsp;&lt;div&gt;path_ct: str/path&lt;/div&gt;&lt;div&gt;turbie_params: str/path&lt;/div&gt;" style="text;html=1;align=center;verticalAlign=middle;resizable=0;points=[];autosize=1;strokeColor=none;fillColor=none;" vertex="1" parent="1">
          <mxGeometry x="125" y="220" width="160" height="60" as="geometry" />
        </mxCell>
        <mxCell id="0ad2F_PwVZQ8O6TXxoXa-7" value="call calculate_for_TI for&lt;div&gt;&amp;nbsp;each TI value&amp;nbsp;&lt;/div&gt;" style="text;html=1;align=center;verticalAlign=middle;resizable=0;points=[];autosize=1;strokeColor=none;fillColor=none;" vertex="1" parent="1">
          <mxGeometry x="390" y="155" width="150" height="40" as="geometry" />
        </mxCell>
        <mxCell id="0ad2F_PwVZQ8O6TXxoXa-9" value="" style="endArrow=classic;html=1;rounded=0;" edge="1" parent="1">
          <mxGeometry width="50" height="50" relative="1" as="geometry">
            <mxPoint x="272.5" y="249.5" as="sourcePoint" />
            <mxPoint x="332.5" y="249.5" as="targetPoint" />
          </mxGeometry>
        </mxCell>
        <mxCell id="0ad2F_PwVZQ8O6TXxoXa-10" value="" style="endArrow=classic;html=1;rounded=0;" edge="1" parent="1">
          <mxGeometry width="50" height="50" relative="1" as="geometry">
            <mxPoint x="452.5" y="249.5" as="sourcePoint" />
            <mxPoint x="512.5" y="249.5" as="targetPoint" />
          </mxGeometry>
        </mxCell>
        <mxCell id="0ad2F_PwVZQ8O6TXxoXa-11" value="blade_data: list&lt;div&gt;tower_data: list&lt;/div&gt;" style="text;html=1;align=center;verticalAlign=middle;resizable=0;points=[];autosize=1;strokeColor=none;fillColor=none;" vertex="1" parent="1">
          <mxGeometry x="510" y="230" width="100" height="40" as="geometry" />
        </mxCell>
        <mxCell id="0ad2F_PwVZQ8O6TXxoXa-12" value="" style="endArrow=classic;html=1;rounded=0;exitX=0.5;exitY=1;exitDx=0;exitDy=0;" edge="1" parent="1" source="0ad2F_PwVZQ8O6TXxoXa-3">
          <mxGeometry width="50" height="50" relative="1" as="geometry">
            <mxPoint x="400" y="260" as="sourcePoint" />
            <mxPoint x="393" y="340" as="targetPoint" />
          </mxGeometry>
        </mxCell>
        <mxCell id="0ad2F_PwVZQ8O6TXxoXa-13" value="convert blade_data and tower_data to arrays&amp;nbsp;" style="ellipse;whiteSpace=wrap;html=1;" vertex="1" parent="1">
          <mxGeometry x="308.75" y="340" width="171.25" height="80" as="geometry" />
        </mxCell>
        <mxCell id="0ad2F_PwVZQ8O6TXxoXa-14" value="" style="endArrow=classic;html=1;rounded=0;exitX=0.5;exitY=1;exitDx=0;exitDy=0;entryX=0.5;entryY=0;entryDx=0;entryDy=0;" edge="1" parent="1" target="0ad2F_PwVZQ8O6TXxoXa-16">
          <mxGeometry width="50" height="50" relative="1" as="geometry">
            <mxPoint x="393.88" y="420" as="sourcePoint" />
            <mxPoint x="393.88" y="480" as="targetPoint" />
          </mxGeometry>
        </mxCell>
        <mxCell id="0ad2F_PwVZQ8O6TXxoXa-15" value="call plot_mean_stdv for&lt;div&gt;&amp;nbsp;each pair (blade_data and&amp;nbsp;&lt;/div&gt;&lt;div&gt;tower_data) of TI data arrays&amp;nbsp;&lt;/div&gt;" style="text;html=1;align=center;verticalAlign=middle;resizable=0;points=[];autosize=1;strokeColor=none;fillColor=none;" vertex="1" parent="1">
          <mxGeometry x="390" y="420" width="180" height="60" as="geometry" />
        </mxCell>
        <mxCell id="0ad2F_PwVZQ8O6TXxoXa-16" value="plot_mean_stdv" style="rounded=1;whiteSpace=wrap;html=1;" vertex="1" parent="1">
          <mxGeometry x="334.38" y="500" width="120" height="60" as="geometry" />
        </mxCell>
        <mxCell id="0ad2F_PwVZQ8O6TXxoXa-17" value="blade_array: np.ndarray&amp;nbsp;&lt;div&gt;tower_array: np.ndarray&lt;br&gt;&lt;div&gt;TI_title: str&amp;nbsp;&lt;/div&gt;&lt;/div&gt;" style="text;html=1;align=center;verticalAlign=middle;resizable=0;points=[];autosize=1;strokeColor=none;fillColor=none;" vertex="1" parent="1">
          <mxGeometry x="125" y="500" width="150" height="60" as="geometry" />
        </mxCell>
        <mxCell id="0ad2F_PwVZQ8O6TXxoXa-18" value="" style="endArrow=classic;html=1;rounded=0;" edge="1" parent="1">
          <mxGeometry width="50" height="50" relative="1" as="geometry">
            <mxPoint x="272.5" y="529.5" as="sourcePoint" />
            <mxPoint x="332.5" y="529.5" as="targetPoint" />
          </mxGeometry>
        </mxCell>
        <mxCell id="0ad2F_PwVZQ8O6TXxoXa-19" value="fig, axs: tuple&amp;nbsp;" style="text;html=1;align=center;verticalAlign=middle;resizable=0;points=[];autosize=1;strokeColor=none;fillColor=none;" vertex="1" parent="1">
          <mxGeometry x="510" y="515" width="100" height="30" as="geometry" />
        </mxCell>
        <mxCell id="0ad2F_PwVZQ8O6TXxoXa-20" value="" style="endArrow=classic;html=1;rounded=0;" edge="1" parent="1">
          <mxGeometry width="50" height="50" relative="1" as="geometry">
            <mxPoint x="454.38" y="529.5" as="sourcePoint" />
            <mxPoint x="514.38" y="529.5" as="targetPoint" />
          </mxGeometry>
        </mxCell>
        <mxCell id="0ad2F_PwVZQ8O6TXxoXa-21" value="" style="endArrow=classic;html=1;rounded=0;exitX=0.5;exitY=1;exitDx=0;exitDy=0;" edge="1" parent="1" source="0ad2F_PwVZQ8O6TXxoXa-16">
          <mxGeometry width="50" height="50" relative="1" as="geometry">
            <mxPoint x="400" y="560" as="sourcePoint" />
            <mxPoint x="394" y="630" as="targetPoint" />
          </mxGeometry>
        </mxCell>
        <mxCell id="0ad2F_PwVZQ8O6TXxoXa-22" value="itialize end_time and calculate total run time" style="ellipse;whiteSpace=wrap;html=1;" vertex="1" parent="1">
          <mxGeometry x="316.57" y="630" width="155.62" height="80" as="geometry" />
        </mxCell>
        <mxCell id="0ad2F_PwVZQ8O6TXxoXa-23" value="" style="endArrow=classic;html=1;rounded=0;exitX=0.5;exitY=1;exitDx=0;exitDy=0;" edge="1" parent="1">
          <mxGeometry width="50" height="50" relative="1" as="geometry">
            <mxPoint x="393.88" y="710" as="sourcePoint" />
            <mxPoint x="393.88" y="780" as="targetPoint" />
          </mxGeometry>
        </mxCell>
        <mxCell id="0ad2F_PwVZQ8O6TXxoXa-24" value="display figures" style="ellipse;whiteSpace=wrap;html=1;" vertex="1" parent="1">
          <mxGeometry x="316.57" y="780" width="155.62" height="80" as="geometry" />
        </mxCell>
      </root>
    </mxGraphModel>
  </diagram>
</mxfile>
